<svg width="357" height="142" viewBox="0 0 357 142" fill="none" xmlns="http://www.w3.org/2000/svg">
<path d="M280.364 54.6364H284.727V59H280.364V54.6364ZM280.364 50.2727H284.727V54.6364H280.364V50.2727ZM280.364 45.9091H284.727V50.2727H280.364V45.9091ZM280.364 41.5455H284.727V45.9091H280.364V41.5455ZM280.364 37.1818H284.727V41.5455H280.364V37.1818ZM284.727 37.1818H289.091V41.5455H284.727V37.1818ZM284.727 45.9091H289.091V50.2727H284.727V45.9091ZM289.091 37.1818H293.455V41.5455H289.091V37.1818Z" fill="#D37D47"/>
<path d="M307.009 41.5455H311.372V45.9091H307.009V41.5455ZM307.009 45.9091H311.372V50.2727H307.009V45.9091ZM307.009 50.2727H311.372V54.6364H307.009V50.2727ZM307.009 54.6364H311.372V59H307.009V54.6364ZM302.645 41.5455H307.009V45.9091H302.645V41.5455ZM302.645 54.6364H307.009V59H302.645V54.6364ZM298.281 45.9091H302.645V50.2727H298.281V45.9091ZM298.281 50.2727H302.645V54.6364H298.281V50.2727Z" fill="#2E2EA3"/>
<path d="M316.199 54.6364H320.562V59H316.199V54.6364ZM316.199 50.2727H320.562V54.6364H316.199V50.2727ZM316.199 45.9091H320.562V50.2727H316.199V45.9091ZM316.199 41.5455H320.562V45.9091H316.199V41.5455ZM320.562 41.5455H324.926V45.9091H320.562V41.5455ZM324.926 45.9091H329.29V50.2727H324.926V45.9091ZM324.926 50.2727H329.29V54.6364H324.926V50.2727ZM324.926 54.6364H329.29V59H324.926V54.6364Z" fill="#0F9684"/>
<path d="M280.364 94.6364H284.727V99H280.364V94.6364ZM280.364 90.2727H284.727V94.6364H280.364V90.2727ZM280.364 85.9091H284.727V90.2727H280.364V85.9091ZM280.364 81.5455H284.727V85.9091H280.364V81.5455ZM280.364 77.1818H284.727V81.5455H280.364V77.1818ZM284.727 85.9091H289.091V90.2727H284.727V85.9091ZM289.091 77.1818H293.455V81.5455H289.091V77.1818ZM289.091 81.5455H293.455V85.9091H289.091V81.5455ZM289.091 85.9091H293.455V90.2727H289.091V85.9091ZM289.091 90.2727H293.455V94.6364H289.091V90.2727ZM289.091 94.6364H293.455V99H289.091V94.6364Z" fill="#AB26AD"/>
<path d="M298.281 81.5455H302.645V85.9091H298.281V81.5455ZM298.281 85.9091H302.645V90.2727H298.281V85.9091ZM298.281 90.2727H302.645V94.6364H298.281V90.2727ZM302.645 94.6364H307.009V99H302.645V94.6364ZM307.009 94.6364H311.372V99H307.009V94.6364ZM307.009 90.2727H311.372V94.6364H307.009V90.2727ZM307.009 85.9091H311.372V90.2727H307.009V85.9091ZM307.009 81.5455H311.372V85.9091H307.009V81.5455Z" fill="#FF70BC"/>
<path d="M316.199 77.1818H320.562V81.5455H316.199V77.1818ZM316.199 81.5455H320.562V85.9091H316.199V81.5455ZM316.199 85.9091H320.562V90.2727H316.199V85.9091ZM316.199 90.2727H320.562V94.6364H316.199V90.2727ZM316.199 94.6364H320.562V99H316.199V94.6364ZM320.562 81.5455H324.926V85.9091H320.562V81.5455ZM324.926 85.9091H329.29V90.2727H324.926V85.9091ZM324.926 90.2727H329.29V94.6364H324.926V90.2727ZM320.562 94.6364H324.926V99H320.562V94.6364Z" fill="#47CB4E"/>
<path d="M28.811 45.3529H31.6346V48.1765H28.811V45.3529ZM31.6346 45.3529H34.4581V48.1765H31.6346V45.3529ZM31.6346 42.5294H34.4581V45.3529H31.6346V42.5294ZM28.811 42.5294H31.6346V45.3529H28.811V42.5294ZM34.4581 42.5294H37.2816V45.3529H34.4581V42.5294ZM34.4581 45.3529H37.2816V48.1765H34.4581V45.3529ZM37.2816 45.3529H40.1051V48.1765H37.2816V45.3529ZM37.2816 48.1765H40.1051V51H37.2816V48.1765ZM37.2816 42.5294H40.1051V45.3529H37.2816V42.5294ZM37.2816 51H40.1051V53.8235H37.2816V51ZM37.2816 56.6471H40.1051V59.4706H37.2816V56.6471ZM37.2816 59.4706H40.1051V62.2941H37.2816V59.4706ZM37.2816 62.2941H40.1051V65.1176H37.2816V62.2941ZM37.2816 65.1176H40.1051V67.9412H37.2816V65.1176ZM37.2816 67.9412H40.1051V70.7647H37.2816V67.9412ZM37.2816 70.7647H40.1051V73.5882H37.2816V70.7647ZM37.2816 73.5882H40.1051V76.4118H37.2816V73.5882ZM37.2816 76.4118H40.1051V79.2353H37.2816V76.4118ZM37.2816 79.2353H40.1051V82.0588H37.2816V79.2353ZM37.2816 53.8235H40.1051V56.6471H37.2816V53.8235ZM34.4581 48.1765H37.2816V51H34.4581V48.1765ZM31.6346 48.1765H34.4581V51H31.6346V48.1765ZM31.6346 51H34.4581V53.8235H31.6346V51ZM31.6346 53.8235H34.4581V56.6471H31.6346V53.8235ZM34.4581 53.8235H37.2816V56.6471H34.4581V53.8235ZM34.4581 56.6471H37.2816V59.4706H34.4581V56.6471ZM34.4581 59.4706H37.2816V62.2941H34.4581V59.4706ZM34.4581 62.2941H37.2816V65.1176H34.4581V62.2941ZM34.4581 65.1176H37.2816V67.9412H34.4581V65.1176ZM34.4581 67.9412H37.2816V70.7647H34.4581V67.9412ZM34.4581 70.7647H37.2816V73.5882H34.4581V70.7647ZM34.4581 73.5882H37.2816V76.4118H34.4581V73.5882ZM34.4581 51H37.2816V53.8235H34.4581V51ZM28.811 48.1765H31.6346V51H28.811V48.1765ZM28.811 51H31.6346V53.8235H28.811V51ZM28.811 53.8235H31.6346V56.6471H28.811V53.8235ZM28.811 56.6471H31.6346V59.4706H28.811V56.6471ZM28.811 59.4706H31.6346V62.2941H28.811V59.4706ZM28.811 62.2941H31.6346V65.1176H28.811V62.2941ZM28.811 65.1176H31.6346V67.9412H28.811V65.1176ZM28.811 67.9412H31.6346V70.7647H28.811V67.9412ZM28.811 70.7647H31.6346V73.5882H28.811V70.7647ZM28.811 73.5882H31.6346V76.4118H28.811V73.5882ZM28.811 76.4118H31.6346V79.2353H28.811V76.4118ZM31.6346 76.4118H34.4581V79.2353H31.6346V76.4118ZM31.6346 79.2353H34.4581V82.0588H31.6346V79.2353ZM31.6346 73.5882H34.4581V76.4118H31.6346V73.5882ZM31.6346 65.1176H34.4581V67.9412H31.6346V65.1176ZM31.6346 62.2941H34.4581V65.1176H31.6346V62.2941ZM31.6346 59.4706H34.4581V62.2941H31.6346V59.4706ZM31.6346 56.6471H34.4581V59.4706H31.6346V56.6471ZM31.6346 67.9412H34.4581V70.7647H31.6346V67.9412ZM31.6346 70.7647H34.4581V73.5882H31.6346V70.7647ZM28.811 79.2353H31.6346V82.0588H28.811V79.2353ZM28.811 82.0588H31.6346V84.8824H28.811V82.0588ZM31.6346 82.0588H34.4581V84.8824H31.6346V82.0588ZM34.4581 79.2353H37.2816V82.0588H34.4581V79.2353ZM34.4581 76.4118H37.2816V79.2353H34.4581V76.4118ZM40.1051 79.2353H42.9287V82.0588H40.1051V79.2353ZM40.1051 82.0588H42.9287V84.8824H40.1051V82.0588ZM37.2816 82.0588H40.1051V84.8824H37.2816V82.0588ZM34.4581 82.0588H37.2816V84.8824H34.4581V82.0588ZM31.6346 84.8824H34.4581V87.7059H31.6346V84.8824ZM34.4581 84.8824H37.2816V87.7059H34.4581V84.8824ZM37.2816 84.8824H40.1051V87.7059H37.2816V84.8824ZM40.1051 84.8824H42.9287V87.7059H40.1051V84.8824ZM42.9287 84.8824H45.7522V87.7059H42.9287V84.8824ZM42.9287 82.0588H45.7522V84.8824H42.9287V82.0588ZM40.1051 87.7059H42.9287V90.5294H40.1051V87.7059ZM37.2816 87.7059H40.1051V90.5294H37.2816V87.7059ZM34.4581 87.7059H37.2816V90.5294H34.4581V87.7059ZM42.9287 87.7059H45.7522V90.5294H42.9287V87.7059ZM45.7522 87.7059H48.5757V90.5294H45.7522V87.7059ZM45.7522 84.8824H48.5757V87.7059H45.7522V84.8824ZM42.9287 96.1765H45.7522V99H42.9287V96.1765ZM45.7522 96.1765H48.5757V99H45.7522V96.1765ZM48.5757 96.1765H51.3993V99H48.5757V96.1765ZM48.5757 93.3529H51.3993V96.1765H48.5757V93.3529ZM51.3993 93.3529H54.2228V96.1765H51.3993V93.3529ZM45.7522 93.3529H48.5757V96.1765H45.7522V93.3529ZM42.9287 93.3529H45.7522V96.1765H42.9287V93.3529ZM40.1051 93.3529H42.9287V96.1765H40.1051V93.3529ZM40.1051 90.5294H42.9287V93.3529H40.1051V90.5294ZM37.2816 90.5294H40.1051V93.3529H37.2816V90.5294ZM42.9287 90.5294H45.7522V93.3529H42.9287V90.5294ZM45.7522 90.5294H48.5757V93.3529H45.7522V90.5294ZM48.5757 90.5294H51.3993V93.3529H48.5757V90.5294ZM51.3993 90.5294H54.2228V93.3529H51.3993V90.5294ZM54.2228 90.5294H57.0463V93.3529H54.2228V90.5294ZM54.2228 87.7059H57.0463V90.5294H54.2228V87.7059ZM57.0463 87.7059H59.8699V90.5294H57.0463V87.7059ZM59.8699 84.8824H62.6934V87.7059H59.8699V84.8824ZM59.8699 82.0588H62.6934V84.8824H59.8699V82.0588ZM62.6934 82.0588H65.5169V84.8824H62.6934V82.0588ZM57.0463 82.0588H59.8699V84.8824H57.0463V82.0588ZM57.0463 84.8824H59.8699V87.7059H57.0463V84.8824ZM54.2228 84.8824H57.0463V87.7059H54.2228V84.8824ZM51.3993 84.8824H54.2228V87.7059H51.3993V84.8824ZM51.3993 87.7059H54.2228V90.5294H51.3993V87.7059ZM48.5757 87.7059H51.3993V90.5294H48.5757V87.7059ZM48.5757 84.8824H51.3993V87.7059H48.5757V84.8824ZM48.5757 82.0588H51.3993V84.8824H48.5757V82.0588ZM51.3993 82.0588H54.2228V84.8824H51.3993V82.0588ZM51.3993 79.2353H54.2228V82.0588H51.3993V79.2353ZM54.2228 82.0588H57.0463V84.8824H54.2228V82.0588ZM54.2228 79.2353H57.0463V82.0588H54.2228V79.2353ZM57.0463 79.2353H59.8699V82.0588H57.0463V79.2353ZM59.8699 79.2353H62.6934V82.0588H59.8699V79.2353ZM62.6934 79.2353H65.5169V82.0588H62.6934V79.2353ZM62.6934 76.4118H65.5169V79.2353H62.6934V76.4118ZM59.8699 76.4118H62.6934V79.2353H59.8699V76.4118ZM57.0463 76.4118H59.8699V79.2353H57.0463V76.4118ZM54.2228 76.4118H57.0463V79.2353H54.2228V76.4118ZM54.2228 73.5882H57.0463V76.4118H54.2228V73.5882ZM57.0463 73.5882H59.8699V76.4118H57.0463V73.5882ZM59.8699 73.5882H62.6934V76.4118H59.8699V73.5882ZM62.6934 73.5882H65.5169V76.4118H62.6934V73.5882ZM62.6934 70.7647H65.5169V73.5882H62.6934V70.7647ZM59.8699 70.7647H62.6934V73.5882H59.8699V70.7647ZM57.0463 70.7647H59.8699V73.5882H57.0463V70.7647ZM54.2228 70.7647H57.0463V73.5882H54.2228V70.7647ZM62.6934 67.9412H65.5169V70.7647H62.6934V67.9412ZM59.8699 67.9412H62.6934V70.7647H59.8699V67.9412ZM57.0463 67.9412H59.8699V70.7647H57.0463V67.9412ZM54.2228 67.9412H57.0463V70.7647H54.2228V67.9412ZM54.2228 65.1176H57.0463V67.9412H54.2228V65.1176ZM57.0463 65.1176H59.8699V67.9412H57.0463V65.1176ZM59.8699 65.1176H62.6934V67.9412H59.8699V65.1176ZM62.6934 65.1176H65.5169V67.9412H62.6934V65.1176ZM62.6934 62.2941H65.5169V65.1176H62.6934V62.2941ZM59.8699 62.2941H62.6934V65.1176H59.8699V62.2941ZM57.0463 62.2941H59.8699V65.1176H57.0463V62.2941ZM54.2228 62.2941H57.0463V65.1176H54.2228V62.2941ZM62.6934 59.4706H65.5169V62.2941H62.6934V59.4706ZM59.8699 59.4706H62.6934V62.2941H59.8699V59.4706ZM57.0463 59.4706H59.8699V62.2941H57.0463V59.4706ZM54.2228 59.4706H57.0463V62.2941H54.2228V59.4706ZM54.2228 56.6471H57.0463V59.4706H54.2228V56.6471ZM57.0463 56.6471H59.8699V59.4706H57.0463V56.6471ZM59.8699 56.6471H62.6934V59.4706H59.8699V56.6471ZM62.6934 56.6471H65.5169V59.4706H62.6934V56.6471ZM62.6934 53.8235H65.5169V56.6471H62.6934V53.8235ZM59.8699 53.8235H62.6934V56.6471H59.8699V53.8235ZM57.0463 53.8235H59.8699V56.6471H57.0463V53.8235ZM54.2228 53.8235H57.0463V56.6471H54.2228V53.8235ZM54.2228 51H57.0463V53.8235H54.2228V51ZM57.0463 51H59.8699V53.8235H57.0463V51ZM59.8699 51H62.6934V53.8235H59.8699V51ZM62.6934 51H65.5169V53.8235H62.6934V51ZM62.6934 48.1765H65.5169V51H62.6934V48.1765ZM59.8699 48.1765H62.6934V51H59.8699V48.1765ZM57.0463 48.1765H59.8699V51H57.0463V48.1765ZM54.2228 48.1765H57.0463V51H54.2228V48.1765ZM54.2228 42.5294H57.0463V45.3529H54.2228V42.5294ZM57.0463 42.5294H59.8699V45.3529H57.0463V42.5294ZM59.8699 42.5294H62.6934V45.3529H59.8699V42.5294ZM62.6934 42.5294H65.5169V45.3529H62.6934V42.5294ZM62.6934 45.3529H65.5169V48.1765H62.6934V45.3529ZM59.8699 45.3529H62.6934V48.1765H59.8699V45.3529ZM57.0463 45.3529H59.8699V48.1765H57.0463V45.3529ZM54.2228 45.3529H57.0463V48.1765H54.2228V45.3529Z" fill="#249FE2"/>
<path d="M74.4785 59.4706H77.3021V62.2941H74.4785V59.4706ZM77.3021 59.4706H80.1256V62.2941H77.3021V59.4706ZM80.1256 59.4706H82.9491V62.2941H80.1256V59.4706ZM82.9491 59.4706H85.7726V62.2941H82.9491V59.4706ZM85.7726 59.4706H88.5962V62.2941H85.7726V59.4706ZM88.5962 59.4706H91.4197V62.2941H88.5962V59.4706ZM91.4197 59.4706H94.2432V62.2941H91.4197V59.4706ZM94.2432 59.4706H97.0668V62.2941H94.2432V59.4706ZM97.0668 59.4706H99.8903V62.2941H97.0668V59.4706ZM97.0668 62.2941H99.8903V65.1176H97.0668V62.2941ZM97.0668 65.1176H99.8903V67.9412H97.0668V65.1176ZM94.2432 65.1176H97.0668V67.9412H94.2432V65.1176ZM91.4197 65.1176H94.2432V67.9412H91.4197V65.1176ZM88.5962 65.1176H91.4197V67.9412H88.5962V65.1176ZM85.7726 65.1176H88.5962V67.9412H85.7726V65.1176ZM82.9491 65.1176H85.7726V67.9412H82.9491V65.1176ZM80.1256 65.1176H82.9491V67.9412H80.1256V65.1176ZM77.3021 65.1176H80.1256V67.9412H77.3021V65.1176ZM77.3021 62.2941H80.1256V65.1176H77.3021V62.2941ZM74.4785 62.2941H77.3021V65.1176H74.4785V62.2941ZM74.4785 65.1176H77.3021V67.9412H74.4785V65.1176ZM80.1256 62.2941H82.9491V65.1176H80.1256V62.2941ZM82.9491 62.2941H85.7726V65.1176H82.9491V62.2941ZM85.7726 62.2941H88.5962V65.1176H85.7726V62.2941ZM88.5962 62.2941H91.4197V65.1176H88.5962V62.2941ZM91.4197 62.2941H94.2432V65.1176H91.4197V62.2941ZM94.2432 62.2941H97.0668V65.1176H94.2432V62.2941ZM80.1256 56.6471H82.9491V59.4706H80.1256V56.6471ZM82.9491 56.6471H85.7726V59.4706H82.9491V56.6471ZM85.7726 56.6471H88.5962V59.4706H85.7726V56.6471ZM88.5962 56.6471H91.4197V59.4706H88.5962V56.6471ZM85.7726 53.8235H88.5962V56.6471H85.7726V53.8235ZM82.9491 53.8235H85.7726V56.6471H82.9491V53.8235ZM88.5962 53.8235H91.4197V56.6471H88.5962V53.8235ZM88.5962 48.1765H91.4197V51H88.5962V48.1765ZM88.5962 51H91.4197V53.8235H88.5962V51ZM85.7726 51H88.5962V53.8235H85.7726V51ZM88.5962 45.3529H91.4197V48.1765H88.5962V45.3529ZM85.7726 48.1765H88.5962V51H85.7726V48.1765ZM82.9491 51H85.7726V53.8235H82.9491V51ZM80.1256 53.8235H82.9491V56.6471H80.1256V53.8235ZM80.1256 67.9412H82.9491V70.7647H80.1256V67.9412ZM80.1256 70.7647H82.9491V73.5882H80.1256V70.7647ZM80.1256 73.5882H82.9491V76.4118H80.1256V73.5882ZM80.1256 76.4118H82.9491V79.2353H80.1256V76.4118ZM82.9491 76.4118H85.7726V79.2353H82.9491V76.4118ZM82.9491 79.2353H85.7726V82.0588H82.9491V79.2353ZM85.7726 76.4118H88.5962V79.2353H85.7726V76.4118ZM85.7726 73.5882H88.5962V76.4118H85.7726V73.5882ZM88.5962 73.5882H91.4197V76.4118H88.5962V73.5882ZM88.5962 70.7647H91.4197V73.5882H88.5962V70.7647ZM85.7726 67.9412H88.5962V70.7647H85.7726V67.9412ZM82.9491 67.9412H85.7726V70.7647H82.9491V67.9412ZM82.9491 70.7647H85.7726V73.5882H82.9491V70.7647ZM82.9491 73.5882H85.7726V76.4118H82.9491V73.5882ZM85.7726 70.7647H88.5962V73.5882H85.7726V70.7647ZM88.5962 67.9412H91.4197V70.7647H88.5962V67.9412ZM88.5962 76.4118H91.4197V79.2353H88.5962V76.4118ZM88.5962 79.2353H91.4197V82.0588H88.5962V79.2353ZM85.7726 79.2353H88.5962V82.0588H85.7726V79.2353ZM85.7726 82.0588H88.5962V84.8824H85.7726V82.0588ZM82.9491 82.0588H85.7726V84.8824H82.9491V82.0588ZM80.1256 79.2353H82.9491V82.0588H80.1256V79.2353ZM80.1256 82.0588H82.9491V84.8824H80.1256V82.0588ZM88.5962 82.0588H91.4197V84.8824H88.5962V82.0588ZM80.1256 84.8824H82.9491V87.7059H80.1256V84.8824ZM82.9491 84.8824H85.7726V87.7059H82.9491V84.8824ZM82.9491 87.7059H85.7726V90.5294H82.9491V87.7059ZM85.7726 87.7059H88.5962V90.5294H85.7726V87.7059ZM88.5962 87.7059H91.4197V90.5294H88.5962V87.7059ZM88.5962 84.8824H91.4197V87.7059H88.5962V84.8824ZM85.7726 84.8824H88.5962V87.7059H85.7726V84.8824ZM80.1256 87.7059H82.9491V90.5294H80.1256V87.7059ZM88.5962 90.5294H91.4197V93.3529H88.5962V90.5294ZM91.4197 90.5294H94.2432V93.3529H91.4197V90.5294ZM91.4197 87.7059H94.2432V90.5294H91.4197V87.7059ZM85.7726 90.5294H88.5962V93.3529H85.7726V90.5294ZM82.9491 90.5294H85.7726V93.3529H82.9491V90.5294ZM82.9491 93.3529H85.7726V96.1765H82.9491V93.3529ZM85.7726 93.3529H88.5962V96.1765H85.7726V93.3529ZM88.5962 93.3529H91.4197V96.1765H88.5962V93.3529ZM91.4197 93.3529H94.2432V96.1765H91.4197V93.3529ZM94.2432 93.3529H97.0668V96.1765H94.2432V93.3529ZM94.2432 90.5294H97.0668V93.3529H94.2432V90.5294ZM97.0668 90.5294H99.8903V93.3529H97.0668V90.5294ZM97.0668 93.3529H99.8903V96.1765H97.0668V93.3529ZM94.2432 96.1765H97.0668V99H94.2432V96.1765ZM91.4197 96.1765H94.2432V99H91.4197V96.1765ZM88.5962 96.1765H91.4197V99H88.5962V96.1765ZM97.0668 96.1765H99.8903V99H97.0668V96.1765ZM145.508 99H142.685V96.1765H145.508V99ZM142.685 99H139.861V96.1765H142.685V99ZM139.861 99H137.038V96.1765H139.861V99ZM145.508 93.3529H142.685V90.5294H145.508V93.3529ZM145.508 96.1765H142.685V93.3529H145.508V96.1765ZM139.861 59.4706H137.038V56.6471H139.861V59.4706ZM142.685 59.4706H139.861V56.6471H142.685V59.4706ZM145.508 62.2941H142.685V59.4706H145.508V62.2941ZM145.508 65.1176H142.685V62.2941H145.508V65.1176ZM145.508 59.4706H142.685V56.6471H145.508V59.4706ZM131.391 99H128.567V96.1765H131.391V99ZM137.038 99H134.214V96.1765H137.038V99ZM128.567 99H125.743V96.1765H128.567V99ZM125.743 99H122.92V96.1765H125.743V99ZM122.92 99H120.096V96.1765H122.92V99ZM120.096 99H117.273V96.1765H120.096V99ZM117.273 96.1765H114.449V93.3529H117.273V96.1765ZM120.096 96.1765H117.273V93.3529H120.096V96.1765ZM120.096 93.3529H117.273V90.5294H120.096V93.3529ZM114.449 96.1765H111.626V93.3529H114.449V96.1765ZM114.449 93.3529H111.626V90.5294H114.449V93.3529ZM117.273 93.3529H114.449V90.5294H117.273V93.3529ZM120.096 90.5294H117.273V87.7059H120.096V90.5294ZM122.92 90.5294H120.096V87.7059H122.92V90.5294ZM117.273 90.5294H114.449V87.7059H117.273V90.5294ZM114.449 90.5294H111.626V87.7059H114.449V90.5294ZM111.626 90.5294H108.802V87.7059H111.626V90.5294ZM111.626 87.7059H108.802V84.8824H111.626V87.7059ZM111.626 84.8824H108.802V82.0588H111.626V84.8824ZM111.626 82.0588H108.802V79.2353H111.626V82.0588ZM111.626 79.2353H108.802V76.4118H111.626V79.2353ZM111.626 76.4118H108.802V73.5882H111.626V76.4118ZM111.626 73.5882H108.802V70.7647H111.626V73.5882ZM111.626 70.7647H108.802V67.9412H111.626V70.7647ZM111.626 67.9412H108.802V65.1176H111.626V67.9412ZM114.449 67.9412H111.626V65.1176H114.449V67.9412ZM114.449 65.1176H111.626V62.2941H114.449V65.1176ZM114.449 62.2941H111.626V59.4706H114.449V62.2941ZM117.273 62.2941H114.449V59.4706H117.273V62.2941ZM120.096 62.2941H117.273V59.4706H120.096V62.2941ZM120.096 67.9412H117.273V65.1176H120.096V67.9412ZM120.096 65.1176H117.273V62.2941H120.096V65.1176ZM117.273 65.1176H114.449V62.2941H117.273V65.1176ZM117.273 67.9412H114.449V65.1176H117.273V67.9412ZM117.273 70.7647H114.449V67.9412H117.273V70.7647ZM120.096 70.7647H117.273V67.9412H120.096V70.7647ZM120.096 73.5882H117.273V70.7647H120.096V73.5882ZM120.096 76.4118H117.273V73.5882H120.096V76.4118ZM120.096 79.2353H117.273V76.4118H120.096V79.2353ZM120.096 82.0588H117.273V79.2353H120.096V82.0588ZM120.096 84.8824H117.273V82.0588H120.096V84.8824ZM120.096 87.7059H117.273V84.8824H120.096V87.7059ZM117.273 87.7059H114.449V84.8824H117.273V87.7059ZM117.273 84.8824H114.449V82.0588H117.273V84.8824ZM117.273 82.0588H114.449V79.2353H117.273V82.0588ZM117.273 79.2353H114.449V76.4118H117.273V79.2353ZM117.273 76.4118H114.449V73.5882H117.273V76.4118ZM117.273 73.5882H114.449V70.7647H117.273V73.5882ZM114.449 70.7647H111.626V67.9412H114.449V70.7647ZM114.449 73.5882H111.626V70.7647H114.449V73.5882ZM114.449 76.4118H111.626V73.5882H114.449V76.4118ZM114.449 79.2353H111.626V76.4118H114.449V79.2353ZM114.449 82.0588H111.626V79.2353H114.449V82.0588ZM114.449 84.8824H111.626V82.0588H114.449V84.8824ZM114.449 87.7059H111.626V84.8824H114.449V87.7059ZM120.096 59.4706H117.273V56.6471H120.096V59.4706ZM137.038 59.4706H134.214V56.6471H137.038V59.4706ZM137.038 62.2941H134.214V59.4706H137.038V62.2941ZM139.861 62.2941H137.038V59.4706H139.861V62.2941ZM142.685 62.2941H139.861V59.4706H142.685V62.2941ZM142.685 84.8824H139.861V82.0588H142.685V84.8824ZM142.685 87.7059H139.861V84.8824H142.685V87.7059ZM145.508 90.5294H142.685V87.7059H145.508V90.5294ZM142.685 93.3529H139.861V90.5294H142.685V93.3529ZM139.861 96.1765H137.038V93.3529H139.861V96.1765ZM137.038 96.1765H134.214V93.3529H137.038V96.1765ZM134.214 96.1765H131.391V93.3529H134.214V96.1765ZM134.214 93.3529H131.391V90.5294H134.214V93.3529ZM134.214 90.5294H131.391V87.7059H134.214V90.5294ZM137.038 90.5294H134.214V87.7059H137.038V90.5294ZM139.861 90.5294H137.038V87.7059H139.861V90.5294ZM137.038 87.7059H134.214V84.8824H137.038V87.7059ZM137.038 84.8824H134.214V82.0588H137.038V84.8824ZM137.038 82.0588H134.214V79.2353H137.038V82.0588ZM137.038 65.1176H134.214V62.2941H137.038V65.1176ZM139.861 65.1176H137.038V62.2941H139.861V65.1176ZM139.861 84.8824H137.038V82.0588H139.861V84.8824ZM139.861 87.7059H137.038V84.8824H139.861V87.7059ZM139.861 93.3529H137.038V90.5294H139.861V93.3529ZM137.038 93.3529H134.214V90.5294H137.038V93.3529ZM131.391 96.1765H128.567V93.3529H131.391V96.1765ZM128.567 96.1765H125.743V93.3529H128.567V96.1765ZM125.743 96.1765H122.92V93.3529H125.743V96.1765ZM122.92 96.1765H120.096V93.3529H122.92V96.1765ZM122.92 93.3529H120.096V90.5294H122.92V93.3529ZM125.743 93.3529H122.92V90.5294H125.743V93.3529ZM128.567 93.3529H125.743V90.5294H128.567V93.3529ZM131.391 93.3529H128.567V90.5294H131.391V93.3529ZM142.685 96.1765H139.861V93.3529H142.685V96.1765ZM142.685 65.1176H139.861V62.2941H142.685V65.1176ZM142.685 90.5294H139.861V87.7059H142.685V90.5294ZM145.508 87.7059H142.685V84.8824H145.508V87.7059ZM145.508 84.8824H142.685V82.0588H145.508V84.8824ZM145.508 67.9412H142.685V65.1176H145.508V67.9412ZM142.685 67.9412H139.861V65.1176H142.685V67.9412ZM139.861 67.9412H137.038V65.1176H139.861V67.9412ZM137.038 67.9412H134.214V65.1176H137.038V67.9412ZM139.861 82.0588H137.038V79.2353H139.861V82.0588ZM142.685 82.0588H139.861V79.2353H142.685V82.0588ZM145.508 82.0588H142.685V79.2353H145.508V82.0588ZM145.508 79.2353H142.685V76.4118H145.508V79.2353ZM145.508 76.4118H142.685V73.5882H145.508V76.4118ZM145.508 73.5882H142.685V70.7647H145.508V73.5882ZM142.685 73.5882H139.861V70.7647H142.685V73.5882ZM142.685 70.7647H139.861V67.9412H142.685V70.7647ZM139.861 70.7647H137.038V67.9412H139.861V70.7647ZM145.508 70.7647H142.685V67.9412H145.508V70.7647ZM137.038 70.7647H134.214V67.9412H137.038V70.7647ZM137.038 73.5882H134.214V70.7647H137.038V73.5882ZM137.038 76.4118H134.214V73.5882H137.038V76.4118ZM137.038 79.2353H134.214V76.4118H137.038V79.2353ZM139.861 79.2353H137.038V76.4118H139.861V79.2353ZM142.685 79.2353H139.861V76.4118H142.685V79.2353ZM142.685 76.4118H139.861V73.5882H142.685V76.4118ZM139.861 73.5882H137.038V70.7647H139.861V73.5882ZM139.861 76.4118H137.038V73.5882H139.861V76.4118ZM117.273 59.4706H114.449V56.6471H117.273V59.4706ZM114.449 59.4706H111.626V56.6471H114.449V59.4706ZM111.626 59.4706H108.802V56.6471H111.626V59.4706ZM111.626 62.2941H108.802V59.4706H111.626V62.2941ZM111.626 65.1176H108.802V62.2941H111.626V65.1176ZM154.47 42.5294H157.293V45.3529H154.47V42.5294ZM157.293 42.5294H160.117V45.3529H157.293V42.5294ZM160.117 42.5294H162.94V45.3529H160.117V42.5294ZM162.94 42.5294H165.764V45.3529H162.94V42.5294ZM162.94 45.3529H165.764V48.1765H162.94V45.3529ZM162.94 48.1765H165.764V51H162.94V48.1765ZM160.117 48.1765H162.94V51H160.117V48.1765ZM157.293 48.1765H160.117V51H157.293V48.1765ZM157.293 45.3529H160.117V48.1765H157.293V45.3529ZM154.47 45.3529H157.293V48.1765H154.47V45.3529ZM160.117 45.3529H162.94V48.1765H160.117V45.3529ZM154.47 48.1765H157.293V51H154.47V48.1765ZM154.47 51H157.293V53.8235H154.47V51ZM154.47 53.8235H157.293V56.6471H154.47V53.8235ZM157.293 53.8235H160.117V56.6471H157.293V53.8235ZM160.117 53.8235H162.94V56.6471H160.117V53.8235ZM162.94 53.8235H165.764V56.6471H162.94V53.8235ZM162.94 51H165.764V53.8235H162.94V51ZM160.117 51H162.94V53.8235H160.117V51ZM157.293 51H160.117V53.8235H157.293V51ZM154.47 56.6471H157.293V59.4706H154.47V56.6471ZM157.293 56.6471H160.117V59.4706H157.293V56.6471ZM160.117 56.6471H162.94V59.4706H160.117V56.6471ZM154.47 62.2941H157.293V65.1176H154.47V62.2941ZM154.47 59.4706H157.293V62.2941H154.47V59.4706ZM160.117 96.1765H162.94V99H160.117V96.1765ZM157.293 96.1765H160.117V99H157.293V96.1765ZM154.47 93.3529H157.293V96.1765H154.47V93.3529ZM154.47 90.5294H157.293V93.3529H154.47V90.5294ZM154.47 96.1765H157.293V99H154.47V96.1765ZM168.587 56.6471H171.411V59.4706H168.587V56.6471ZM162.94 56.6471H165.764V59.4706H162.94V56.6471ZM171.411 56.6471H174.234V59.4706H171.411V56.6471ZM174.234 56.6471H177.058V59.4706H174.234V56.6471ZM177.058 56.6471H179.882V59.4706H177.058V56.6471ZM179.882 56.6471H182.705V59.4706H179.882V56.6471ZM182.705 59.4706H185.529V62.2941H182.705V59.4706ZM179.882 59.4706H182.705V62.2941H179.882V59.4706ZM179.882 62.2941H182.705V65.1176H179.882V62.2941ZM185.529 59.4706H188.352V62.2941H185.529V59.4706ZM185.529 62.2941H188.352V65.1176H185.529V62.2941ZM182.705 62.2941H185.529V65.1176H182.705V62.2941ZM179.882 65.1176H182.705V67.9412H179.882V65.1176ZM177.058 65.1176H179.882V67.9412H177.058V65.1176ZM182.705 65.1176H185.529V67.9412H182.705V65.1176ZM185.529 65.1176H188.352V67.9412H185.529V65.1176ZM188.352 65.1176H191.176V67.9412H188.352V65.1176ZM188.352 67.9412H191.176V70.7647H188.352V67.9412ZM188.352 70.7647H191.176V73.5882H188.352V70.7647ZM188.352 73.5882H191.176V76.4118H188.352V73.5882ZM188.352 76.4118H191.176V79.2353H188.352V76.4118ZM188.352 79.2353H191.176V82.0588H188.352V79.2353ZM188.352 82.0588H191.176V84.8824H188.352V82.0588ZM188.352 84.8824H191.176V87.7059H188.352V84.8824ZM188.352 87.7059H191.176V90.5294H188.352V87.7059ZM185.529 87.7059H188.352V90.5294H185.529V87.7059ZM185.529 90.5294H188.352V93.3529H185.529V90.5294ZM185.529 93.3529H188.352V96.1765H185.529V93.3529ZM182.705 93.3529H185.529V96.1765H182.705V93.3529ZM179.882 93.3529H182.705V96.1765H179.882V93.3529ZM177.058 90.5294H179.882V93.3529H177.058V90.5294ZM177.058 87.7059H179.882V90.5294H177.058V87.7059ZM179.882 87.7059H182.705V90.5294H179.882V87.7059ZM179.882 90.5294H182.705V93.3529H179.882V90.5294ZM182.705 90.5294H185.529V93.3529H182.705V90.5294ZM182.705 87.7059H185.529V90.5294H182.705V87.7059ZM182.705 84.8824H185.529V87.7059H182.705V84.8824ZM179.882 84.8824H182.705V87.7059H179.882V84.8824ZM179.882 82.0588H182.705V84.8824H179.882V82.0588ZM179.882 79.2353H182.705V82.0588H179.882V79.2353ZM179.882 76.4118H182.705V79.2353H179.882V76.4118ZM179.882 73.5882H182.705V76.4118H179.882V73.5882ZM179.882 70.7647H182.705V73.5882H179.882V70.7647ZM179.882 67.9412H182.705V70.7647H179.882V67.9412ZM182.705 67.9412H185.529V70.7647H182.705V67.9412ZM182.705 70.7647H185.529V73.5882H182.705V70.7647ZM182.705 73.5882H185.529V76.4118H182.705V73.5882ZM182.705 76.4118H185.529V79.2353H182.705V76.4118ZM182.705 79.2353H185.529V82.0588H182.705V79.2353ZM182.705 82.0588H185.529V84.8824H182.705V82.0588ZM185.529 84.8824H188.352V87.7059H185.529V84.8824ZM185.529 82.0588H188.352V84.8824H185.529V82.0588ZM185.529 79.2353H188.352V82.0588H185.529V79.2353ZM185.529 76.4118H188.352V79.2353H185.529V76.4118ZM185.529 73.5882H188.352V76.4118H185.529V73.5882ZM185.529 70.7647H188.352V73.5882H185.529V70.7647ZM185.529 67.9412H188.352V70.7647H185.529V67.9412ZM177.058 93.3529H179.882V96.1765H177.058V93.3529ZM177.058 96.1765H179.882V99H177.058V96.1765ZM179.882 96.1765H182.705V99H179.882V96.1765ZM174.234 96.1765H177.058V99H174.234V96.1765ZM171.411 96.1765H174.234V99H171.411V96.1765ZM168.587 96.1765H171.411V99H168.587V96.1765ZM165.764 96.1765H168.587V99H165.764V96.1765ZM162.94 96.1765H165.764V99H162.94V96.1765ZM162.94 93.3529H165.764V96.1765H162.94V93.3529ZM160.117 93.3529H162.94V96.1765H160.117V93.3529ZM157.293 93.3529H160.117V96.1765H157.293V93.3529ZM157.293 70.7647H160.117V73.5882H157.293V70.7647ZM157.293 67.9412H160.117V70.7647H157.293V67.9412ZM154.47 65.1176H157.293V67.9412H154.47V65.1176ZM157.293 62.2941H160.117V65.1176H157.293V62.2941ZM160.117 59.4706H162.94V62.2941H160.117V59.4706ZM162.94 59.4706H165.764V62.2941H162.94V59.4706ZM165.764 59.4706H168.587V62.2941H165.764V59.4706ZM165.764 62.2941H168.587V65.1176H165.764V62.2941ZM165.764 65.1176H168.587V67.9412H165.764V65.1176ZM162.94 65.1176H165.764V67.9412H162.94V65.1176ZM160.117 65.1176H162.94V67.9412H160.117V65.1176ZM162.94 67.9412H165.764V70.7647H162.94V67.9412ZM162.94 70.7647H165.764V73.5882H162.94V70.7647ZM162.94 73.5882H165.764V76.4118H162.94V73.5882ZM165.764 90.5294H168.587V93.3529H165.764V90.5294ZM168.587 90.5294H171.411V93.3529H168.587V90.5294ZM171.411 90.5294H174.234V93.3529H171.411V90.5294ZM174.234 90.5294H177.058V93.3529H174.234V90.5294ZM174.234 93.3529H177.058V96.1765H174.234V93.3529ZM171.411 93.3529H174.234V96.1765H171.411V93.3529ZM168.587 93.3529H171.411V96.1765H168.587V93.3529ZM165.764 93.3529H168.587V96.1765H165.764V93.3529ZM162.94 90.5294H165.764V93.3529H162.94V90.5294ZM160.117 90.5294H162.94V93.3529H160.117V90.5294ZM160.117 70.7647H162.94V73.5882H160.117V70.7647ZM160.117 67.9412H162.94V70.7647H160.117V67.9412ZM160.117 62.2941H162.94V65.1176H160.117V62.2941ZM162.94 62.2941H165.764V65.1176H162.94V62.2941ZM168.587 59.4706H171.411V62.2941H168.587V59.4706ZM171.411 59.4706H174.234V62.2941H171.411V59.4706ZM174.234 59.4706H177.058V62.2941H174.234V59.4706ZM177.058 59.4706H179.882V62.2941H177.058V59.4706ZM177.058 62.2941H179.882V65.1176H177.058V62.2941ZM174.234 62.2941H177.058V65.1176H174.234V62.2941ZM171.411 62.2941H174.234V65.1176H171.411V62.2941ZM168.587 62.2941H171.411V65.1176H168.587V62.2941ZM157.293 59.4706H160.117V62.2941H157.293V59.4706ZM157.293 90.5294H160.117V93.3529H157.293V90.5294ZM157.293 65.1176H160.117V67.9412H157.293V65.1176ZM154.47 67.9412H157.293V70.7647H154.47V67.9412ZM154.47 70.7647H157.293V73.5882H154.47V70.7647ZM154.47 87.7059H157.293V90.5294H154.47V87.7059ZM157.293 87.7059H160.117V90.5294H157.293V87.7059ZM160.117 87.7059H162.94V90.5294H160.117V87.7059ZM162.94 87.7059H165.764V90.5294H162.94V87.7059ZM160.117 73.5882H162.94V76.4118H160.117V73.5882ZM157.293 73.5882H160.117V76.4118H157.293V73.5882ZM154.47 73.5882H157.293V76.4118H154.47V73.5882ZM154.47 76.4118H157.293V79.2353H154.47V76.4118ZM154.47 79.2353H157.293V82.0588H154.47V79.2353ZM154.47 82.0588H157.293V84.8824H154.47V82.0588ZM157.293 82.0588H160.117V84.8824H157.293V82.0588ZM157.293 84.8824H160.117V87.7059H157.293V84.8824ZM160.117 84.8824H162.94V87.7059H160.117V84.8824ZM154.47 84.8824H157.293V87.7059H154.47V84.8824ZM162.94 84.8824H165.764V87.7059H162.94V84.8824ZM162.94 82.0588H165.764V84.8824H162.94V82.0588ZM162.94 79.2353H165.764V82.0588H162.94V79.2353ZM162.94 76.4118H165.764V79.2353H162.94V76.4118ZM160.117 76.4118H162.94V79.2353H160.117V76.4118ZM157.293 76.4118H160.117V79.2353H157.293V76.4118ZM157.293 79.2353H160.117V82.0588H157.293V79.2353ZM160.117 82.0588H162.94V84.8824H160.117V82.0588ZM160.117 79.2353H162.94V82.0588H160.117V79.2353ZM211.431 56.6471H214.255V59.4706H211.431V56.6471ZM214.255 56.6471H217.078V59.4706H214.255V56.6471ZM208.608 56.6471H211.431V59.4706H208.608V56.6471ZM217.078 56.6471H219.902V59.4706H217.078V56.6471ZM219.902 56.6471H222.726V59.4706H219.902V56.6471ZM222.726 56.6471H225.549V59.4706H222.726V56.6471ZM225.549 56.6471H228.373V59.4706H225.549V56.6471ZM228.373 59.4706H231.196V62.2941H228.373V59.4706ZM225.549 59.4706H228.373V62.2941H225.549V59.4706ZM225.549 62.2941H228.373V65.1176H225.549V62.2941ZM231.196 59.4706H234.02V62.2941H231.196V59.4706ZM231.196 62.2941H234.02V65.1176H231.196V62.2941ZM228.373 62.2941H231.196V65.1176H228.373V62.2941ZM225.549 65.1176H228.373V67.9412H225.549V65.1176ZM222.726 65.1176H225.549V67.9412H222.726V65.1176ZM228.373 65.1176H231.196V67.9412H228.373V65.1176ZM231.196 65.1176H234.02V67.9412H231.196V65.1176ZM234.02 65.1176H236.843V67.9412H234.02V65.1176ZM234.02 67.9412H236.843V70.7647H234.02V67.9412ZM234.02 84.8824H236.843V87.7059H234.02V84.8824ZM234.02 87.7059H236.843V90.5294H234.02V87.7059ZM231.196 87.7059H234.02V90.5294H231.196V87.7059ZM231.196 90.5294H234.02V93.3529H231.196V90.5294ZM231.196 93.3529H234.02V96.1765H231.196V93.3529ZM228.373 93.3529H231.196V96.1765H228.373V93.3529ZM225.549 93.3529H228.373V96.1765H225.549V93.3529ZM222.726 90.5294H225.549V93.3529H222.726V90.5294ZM222.726 87.7059H225.549V90.5294H222.726V87.7059ZM225.549 87.7059H228.373V90.5294H225.549V87.7059ZM225.549 90.5294H228.373V93.3529H225.549V90.5294ZM228.373 90.5294H231.196V93.3529H228.373V90.5294ZM228.373 87.7059H231.196V90.5294H228.373V87.7059ZM228.373 84.8824H231.196V87.7059H228.373V84.8824ZM225.549 84.8824H228.373V87.7059H225.549V84.8824ZM225.549 67.9412H228.373V70.7647H225.549V67.9412ZM228.373 67.9412H231.196V70.7647H228.373V67.9412ZM231.196 84.8824H234.02V87.7059H231.196V84.8824ZM231.196 67.9412H234.02V70.7647H231.196V67.9412ZM222.726 93.3529H225.549V96.1765H222.726V93.3529ZM222.726 96.1765H225.549V99H222.726V96.1765ZM225.549 96.1765H228.373V99H225.549V96.1765ZM219.902 96.1765H222.726V99H219.902V96.1765ZM217.078 96.1765H219.902V99H217.078V96.1765ZM214.255 96.1765H217.078V99H214.255V96.1765ZM211.431 96.1765H214.255V99H211.431V96.1765ZM208.608 96.1765H211.431V99H208.608V96.1765ZM208.608 93.3529H211.431V96.1765H208.608V93.3529ZM205.784 93.3529H208.608V96.1765H205.784V93.3529ZM202.961 93.3529H205.784V96.1765H202.961V93.3529ZM202.961 90.5294H205.784V93.3529H202.961V90.5294ZM200.137 87.7059H202.961V90.5294H200.137V87.7059ZM202.961 87.7059H205.784V90.5294H202.961V87.7059ZM200.137 84.8824H202.961V87.7059H200.137V84.8824ZM200.137 82.0588H202.961V84.8824H200.137V82.0588ZM200.137 79.2353H202.961V82.0588H200.137V79.2353ZM200.137 76.4118H202.961V79.2353H200.137V76.4118ZM200.137 73.5882H202.961V76.4118H200.137V73.5882ZM200.137 70.7647H202.961V73.5882H200.137V70.7647ZM202.961 70.7647H205.784V73.5882H202.961V70.7647ZM202.961 67.9412H205.784V70.7647H202.961V67.9412ZM200.137 67.9412H202.961V70.7647H200.137V67.9412ZM200.137 65.1176H202.961V67.9412H200.137V65.1176ZM202.961 65.1176H205.784V67.9412H202.961V65.1176ZM202.961 62.2941H205.784V65.1176H202.961V62.2941ZM202.961 59.4706H205.784V62.2941H202.961V59.4706ZM205.784 59.4706H208.608V62.2941H205.784V59.4706ZM208.608 59.4706H211.431V62.2941H208.608V59.4706ZM211.431 59.4706H214.255V62.2941H211.431V59.4706ZM211.431 62.2941H214.255V65.1176H211.431V62.2941ZM211.431 65.1176H214.255V67.9412H211.431V65.1176ZM208.608 65.1176H211.431V67.9412H208.608V65.1176ZM205.784 65.1176H208.608V67.9412H205.784V65.1176ZM208.608 67.9412H211.431V70.7647H208.608V67.9412ZM208.608 70.7647H211.431V73.5882H208.608V70.7647ZM208.608 73.5882H211.431V76.4118H208.608V73.5882ZM208.608 76.4118H211.431V79.2353H208.608V76.4118ZM208.608 79.2353H211.431V82.0588H208.608V79.2353ZM208.608 82.0588H211.431V84.8824H208.608V82.0588ZM208.608 84.8824H211.431V87.7059H208.608V84.8824ZM208.608 87.7059H211.431V90.5294H208.608V87.7059ZM211.431 87.7059H214.255V90.5294H211.431V87.7059ZM211.431 90.5294H214.255V93.3529H211.431V90.5294ZM214.255 90.5294H217.078V93.3529H214.255V90.5294ZM217.078 90.5294H219.902V93.3529H217.078V90.5294ZM219.902 90.5294H222.726V93.3529H219.902V90.5294ZM219.902 93.3529H222.726V96.1765H219.902V93.3529ZM217.078 93.3529H219.902V96.1765H217.078V93.3529ZM214.255 93.3529H217.078V96.1765H214.255V93.3529ZM211.431 93.3529H214.255V96.1765H211.431V93.3529ZM208.608 90.5294H211.431V93.3529H208.608V90.5294ZM205.784 90.5294H208.608V93.3529H205.784V90.5294ZM205.784 87.7059H208.608V90.5294H205.784V87.7059ZM205.784 84.8824H208.608V87.7059H205.784V84.8824ZM205.784 82.0588H208.608V84.8824H205.784V82.0588ZM202.961 82.0588H205.784V84.8824H202.961V82.0588ZM202.961 84.8824H205.784V87.7059H202.961V84.8824ZM202.961 79.2353H205.784V82.0588H202.961V79.2353ZM202.961 76.4118H205.784V79.2353H202.961V76.4118ZM202.961 73.5882H205.784V76.4118H202.961V73.5882ZM205.784 73.5882H208.608V76.4118H205.784V73.5882ZM205.784 76.4118H208.608V79.2353H205.784V76.4118ZM205.784 79.2353H208.608V82.0588H205.784V79.2353ZM205.784 70.7647H208.608V73.5882H205.784V70.7647ZM205.784 67.9412H208.608V70.7647H205.784V67.9412ZM205.784 62.2941H208.608V65.1176H205.784V62.2941ZM208.608 62.2941H211.431V65.1176H208.608V62.2941ZM214.255 59.4706H217.078V62.2941H214.255V59.4706ZM217.078 59.4706H219.902V62.2941H217.078V59.4706ZM219.902 59.4706H222.726V62.2941H219.902V59.4706ZM222.726 59.4706H225.549V62.2941H222.726V59.4706ZM222.726 62.2941H225.549V65.1176H222.726V62.2941ZM219.902 62.2941H222.726V65.1176H219.902V62.2941ZM217.078 62.2941H219.902V65.1176H217.078V62.2941ZM214.255 62.2941H217.078V65.1176H214.255V62.2941ZM234.02 70.7647H236.843V73.5882H234.02V70.7647ZM231.196 70.7647H234.02V73.5882H231.196V70.7647ZM228.373 70.7647H231.196V73.5882H228.373V70.7647ZM225.549 70.7647H228.373V73.5882H225.549V70.7647ZM234.02 73.5882H236.843V76.4118H234.02V73.5882ZM231.196 73.5882H234.02V76.4118H231.196V73.5882ZM228.373 73.5882H231.196V76.4118H228.373V73.5882ZM225.549 73.5882H228.373V76.4118H225.549V73.5882ZM222.726 73.5882H225.549V76.4118H222.726V73.5882ZM219.902 73.5882H222.726V76.4118H219.902V73.5882ZM217.078 73.5882H219.902V76.4118H217.078V73.5882ZM214.255 73.5882H217.078V76.4118H214.255V73.5882ZM211.431 73.5882H214.255V76.4118H211.431V73.5882ZM211.431 76.4118H214.255V79.2353H211.431V76.4118ZM214.255 76.4118H217.078V79.2353H214.255V76.4118ZM217.078 76.4118H219.902V79.2353H217.078V76.4118ZM219.902 76.4118H222.726V79.2353H219.902V76.4118ZM222.726 76.4118H225.549V79.2353H222.726V76.4118ZM225.549 76.4118H228.373V79.2353H225.549V76.4118ZM228.373 76.4118H231.196V79.2353H228.373V76.4118ZM231.196 76.4118H234.02V79.2353H231.196V76.4118ZM234.02 76.4118H236.843V79.2353H234.02V76.4118ZM242.992 56.6471H245.816V59.4706H242.992V56.6471ZM245.816 56.6471H248.639V59.4706H245.816V56.6471ZM248.639 56.6471H251.463V59.4706H248.639V56.6471ZM242.992 62.2941H245.816V65.1176H242.992V62.2941ZM242.992 59.4706H245.816V62.2941H242.992V59.4706ZM248.639 96.1765H251.463V99H248.639V96.1765ZM245.816 96.1765H248.639V99H245.816V96.1765ZM242.992 93.3529H245.816V96.1765H242.992V93.3529ZM242.992 90.5294H245.816V93.3529H242.992V90.5294ZM242.992 96.1765H245.816V99H242.992V96.1765ZM257.11 56.6471H259.933V59.4706H257.11V56.6471ZM251.463 56.6471H254.286V59.4706H251.463V56.6471ZM259.933 56.6471H262.757V59.4706H259.933V56.6471ZM262.757 56.6471H265.581V59.4706H262.757V56.6471ZM265.581 56.6471H268.404V59.4706H265.581V56.6471ZM268.404 59.4706H271.228V62.2941H268.404V59.4706ZM268.404 62.2941H271.228V65.1176H268.404V62.2941ZM271.228 62.2941H274.051V65.1176H271.228V62.2941ZM268.404 65.1176H271.228V67.9412H268.404V65.1176ZM265.581 65.1176H268.404V67.9412H265.581V65.1176ZM251.463 96.1765H254.286V99H251.463V96.1765ZM251.463 93.3529H254.286V96.1765H251.463V93.3529ZM248.639 93.3529H251.463V96.1765H248.639V93.3529ZM245.816 93.3529H248.639V96.1765H245.816V93.3529ZM245.816 70.7647H248.639V73.5882H245.816V70.7647ZM245.816 67.9412H248.639V70.7647H245.816V67.9412ZM242.992 65.1176H245.816V67.9412H242.992V65.1176ZM245.816 62.2941H248.639V65.1176H245.816V62.2941ZM248.639 59.4706H251.463V62.2941H248.639V59.4706ZM251.463 59.4706H254.286V62.2941H251.463V59.4706ZM254.286 59.4706H257.11V62.2941H254.286V59.4706ZM254.286 62.2941H257.11V65.1176H254.286V62.2941ZM254.286 65.1176H257.11V67.9412H254.286V65.1176ZM251.463 65.1176H254.286V67.9412H251.463V65.1176ZM248.639 65.1176H251.463V67.9412H248.639V65.1176ZM251.463 67.9412H254.286V70.7647H251.463V67.9412ZM251.463 70.7647H254.286V73.5882H251.463V70.7647ZM251.463 73.5882H254.286V76.4118H251.463V73.5882ZM251.463 90.5294H254.286V93.3529H251.463V90.5294ZM248.639 90.5294H251.463V93.3529H248.639V90.5294ZM248.639 70.7647H251.463V73.5882H248.639V70.7647ZM248.639 67.9412H251.463V70.7647H248.639V67.9412ZM248.639 62.2941H251.463V65.1176H248.639V62.2941ZM251.463 62.2941H254.286V65.1176H251.463V62.2941ZM257.11 59.4706H259.933V62.2941H257.11V59.4706ZM259.933 59.4706H262.757V62.2941H259.933V59.4706ZM262.757 59.4706H265.581V62.2941H262.757V59.4706ZM265.581 59.4706H268.404V62.2941H265.581V59.4706ZM265.581 62.2941H268.404V65.1176H265.581V62.2941ZM262.757 62.2941H265.581V65.1176H262.757V62.2941ZM259.933 62.2941H262.757V65.1176H259.933V62.2941ZM257.11 62.2941H259.933V65.1176H257.11V62.2941ZM245.816 59.4706H248.639V62.2941H245.816V59.4706ZM245.816 90.5294H248.639V93.3529H245.816V90.5294ZM245.816 65.1176H248.639V67.9412H245.816V65.1176ZM242.992 67.9412H245.816V70.7647H242.992V67.9412ZM242.992 70.7647H245.816V73.5882H242.992V70.7647ZM242.992 87.7059H245.816V90.5294H242.992V87.7059ZM245.816 87.7059H248.639V90.5294H245.816V87.7059ZM248.639 87.7059H251.463V90.5294H248.639V87.7059ZM251.463 87.7059H254.286V90.5294H251.463V87.7059ZM248.639 73.5882H251.463V76.4118H248.639V73.5882ZM245.816 73.5882H248.639V76.4118H245.816V73.5882ZM242.992 73.5882H245.816V76.4118H242.992V73.5882ZM242.992 76.4118H245.816V79.2353H242.992V76.4118ZM242.992 79.2353H245.816V82.0588H242.992V79.2353ZM242.992 82.0588H245.816V84.8824H242.992V82.0588ZM245.816 82.0588H248.639V84.8824H245.816V82.0588ZM245.816 84.8824H248.639V87.7059H245.816V84.8824ZM248.639 84.8824H251.463V87.7059H248.639V84.8824ZM242.992 84.8824H245.816V87.7059H242.992V84.8824ZM251.463 84.8824H254.286V87.7059H251.463V84.8824ZM251.463 82.0588H254.286V84.8824H251.463V82.0588ZM251.463 79.2353H254.286V82.0588H251.463V79.2353ZM251.463 76.4118H254.286V79.2353H251.463V76.4118ZM248.639 76.4118H251.463V79.2353H248.639V76.4118ZM245.816 76.4118H248.639V79.2353H245.816V76.4118ZM245.816 79.2353H248.639V82.0588H245.816V79.2353ZM248.639 82.0588H251.463V84.8824H248.639V82.0588ZM248.639 79.2353H251.463V82.0588H248.639V79.2353ZM262.757 65.1176H265.581V67.9412H262.757V65.1176ZM265.581 67.9412H268.404V70.7647H265.581V67.9412Z" fill="black"/>
</svg>
